<svg width="512" height="512" viewBox="0 0 512 512" fill="none" xmlns="http://www.w3.org/2000/svg">
<circle cx="256" cy="256" r="256" fill="white"/>
<path d="M233.6 106.5V131.35H394.25V106.5H233.6ZM212.6 203.1V227.95H415.6V203.1H212.6ZM263.35 217.8C261.25 303.55 255.3 355.35 192.65 384.05C198.6 388.6 205.95 398.05 209.1 404C277 371.1 286.1 312.3 288.9 217.8H263.35ZM327.75 219.55V365.15C327.75 392.45 333.35 400.15 357.5 400.15C362.75 400.15 382.35 400.15 387.6 400.15C409.3 400.15 415.6 386.5 418.05 337.15C410.7 335.05 400.9 330.85 395.3 326.65C394.6 369.35 393.2 376.7 385.15 376.7C380.95 376.7 364.85 376.7 361.35 376.7C354 376.7 352.6 375.3 352.6 365.15V219.55H327.75ZM108.3 96.7V403.65H133.15V120.5H190.9V96.7H108.3ZM186 96.7V104.05C178.3 127.5 165.7 168.1 152.75 199.6C177.95 227.25 184.25 251.4 184.25 270.3C184.25 281.15 182.5 290.6 176.9 294.45C174.1 296.55 170.6 297.6 166.05 297.6C160.45 298.3 153.8 297.95 145.75 297.25C149.6 304.25 152.05 314.75 152.4 321.4C160.45 321.75 169.2 321.75 176.2 321.05C183.55 320 189.85 317.9 194.75 314.4C204.55 307.05 208.75 292 208.75 272.75C208.75 251.4 203.15 225.85 177.25 196.8C189.15 169.15 202.1 134.85 212.6 106.15L194.75 95.65L190.55 96.7H186Z" fill="black"/>
</svg>
